<svg width="800" height="337" viewBox="0 0 800 337" fill="none" xmlns="http://www.w3.org/2000/svg">
<rect width="800" height="337" fill="#F1EFE8"/>
<path d="M120.535 258.855H90.2503V134.396H120.837V146.47C121.776 144.592 123.554 142.546 126.169 140.332C128.853 138.052 132.24 136.106 136.331 134.497C140.49 132.82 145.186 131.981 150.417 131.981C158.467 131.981 165.342 133.96 171.043 137.917C176.812 141.875 181.239 147.174 184.324 153.814C187.41 160.388 188.953 167.699 188.953 175.748C188.953 183.797 187.309 191.142 184.022 197.783C180.736 204.356 176.108 209.622 170.138 213.579C164.235 217.47 157.259 219.415 149.21 219.415C143.442 219.415 138.511 218.409 134.42 216.396C130.395 214.317 127.209 212.036 124.862 209.555C122.581 207.006 121.139 205.027 120.535 203.618V258.855ZM159.07 175.748C159.07 171.992 158.232 168.638 156.555 165.687C154.878 162.669 152.597 160.321 149.713 158.644C146.896 156.9 143.71 156.028 140.155 156.028C136.466 156.028 133.145 156.9 130.194 158.644C127.31 160.321 125.029 162.669 123.352 165.687C121.675 168.638 120.837 171.992 120.837 175.748C120.837 179.505 121.675 182.892 123.352 185.91C125.029 188.862 127.31 191.176 130.194 192.853C133.145 194.53 136.466 195.368 140.155 195.368C143.71 195.368 146.896 194.53 149.713 192.853C152.597 191.176 154.878 188.862 156.555 185.91C158.232 182.892 159.07 179.505 159.07 175.748ZM221.331 217H190.745V134.396H221.331V147.174H220.828C221.365 145.631 222.673 143.686 224.752 141.338C226.832 138.924 229.749 136.777 233.506 134.899C237.262 132.954 241.857 131.981 247.29 131.981C251.113 131.981 254.635 132.585 257.854 133.792C261.074 134.933 263.421 136.039 264.897 137.113L253.025 161.964C252.086 160.824 250.409 159.65 247.994 158.443C245.646 157.168 242.695 156.531 239.14 156.531C235.048 156.531 231.661 157.571 228.978 159.65C226.362 161.729 224.417 164.245 223.142 167.196C221.935 170.147 221.331 172.931 221.331 175.547V217ZM295.715 131.981C301.148 131.981 306.112 132.451 310.606 133.39C315.1 134.262 318.856 135.268 321.874 136.408C324.96 137.549 326.939 138.488 327.811 139.225L317.85 157.235C316.575 156.296 314.194 155.089 310.706 153.613C307.285 152.138 303.462 151.4 299.236 151.4C296.017 151.4 293.3 151.903 291.087 152.909C288.873 153.848 287.766 155.357 287.766 157.437C287.766 159.516 288.974 161.193 291.388 162.467C293.87 163.675 297.425 164.748 302.054 165.687C306.078 166.492 310.17 167.766 314.328 169.51C318.487 171.254 321.942 173.837 324.692 177.258C327.509 180.611 328.917 185.105 328.917 190.74C328.917 196.508 327.677 201.271 325.195 205.027C322.713 208.783 319.426 211.701 315.335 213.78C311.243 215.86 306.816 217.302 302.054 218.107C297.291 218.979 292.663 219.415 288.169 219.415C281.864 219.415 276.363 218.845 271.668 217.704C267.04 216.564 263.284 215.256 260.399 213.78C257.515 212.305 255.503 211.131 254.363 210.259L264.223 190.136C265.967 191.612 268.817 193.289 272.775 195.167C276.732 196.978 280.925 197.883 285.352 197.883C289.644 197.883 292.965 197.246 295.312 195.972C297.66 194.697 298.834 193.02 298.834 190.941C298.834 189.264 298.264 187.923 297.123 186.916C295.983 185.91 294.373 185.038 292.294 184.3C290.215 183.563 287.699 182.892 284.748 182.288C282.065 181.752 279.214 180.913 276.196 179.773C273.177 178.633 270.327 177.09 267.644 175.145C264.961 173.132 262.781 170.617 261.104 167.599C259.427 164.58 258.588 160.925 258.588 156.632C258.588 151.131 260.366 146.57 263.921 142.948C267.476 139.326 272.071 136.61 277.705 134.798C283.339 132.92 289.343 131.981 295.715 131.981ZM388.921 131.981C394.69 131.981 400.324 133.155 405.824 135.503C411.324 137.85 415.852 141.573 419.407 146.671C422.962 151.702 424.74 158.342 424.74 166.592V217H394.052V171.623C394.052 165.72 392.644 161.293 389.827 158.342C387.009 155.324 383.32 153.814 378.759 153.814C375.741 153.814 372.89 154.619 370.207 156.229C367.591 157.772 365.444 159.985 363.768 162.87C362.158 165.687 361.353 168.94 361.353 172.629V217H330.766V134.396H361.353V146.57C362.158 144.357 363.835 142.143 366.384 139.93C368.999 137.649 372.253 135.771 376.143 134.295C380.101 132.753 384.36 131.981 388.921 131.981ZM420.379 134.396H434.465V100.489H464.749V134.396H483.262V159.549H464.749V182.59C464.749 186.011 465.252 188.795 466.259 190.941C467.265 193.02 469.109 194.06 471.792 194.06C473.603 194.06 475.146 193.658 476.421 192.853C477.695 192.048 478.466 191.511 478.735 191.243L489.198 212.975C488.729 213.378 487.253 214.116 484.771 215.189C482.357 216.262 479.271 217.235 475.515 218.107C471.759 218.979 467.567 219.415 462.938 219.415C454.688 219.415 447.88 217.101 442.514 212.472C437.148 207.777 434.465 200.566 434.465 190.84V159.549H420.379V134.396ZM638.538 217V203.618C637.934 204.96 636.391 206.905 633.909 209.454C631.495 212.003 628.275 214.317 624.25 216.396C620.226 218.409 615.53 219.415 610.164 219.415C602.115 219.415 595.072 217.47 589.036 213.579C582.999 209.622 578.303 204.356 574.95 197.783C571.596 191.142 569.919 183.797 569.919 175.748C569.919 167.699 571.596 160.388 574.95 153.814C578.303 147.174 582.999 141.875 589.036 137.917C595.072 133.96 602.115 131.981 610.164 131.981C615.329 131.981 619.857 132.82 623.747 134.497C627.638 136.106 630.79 138.052 633.205 140.332C635.62 142.546 637.297 144.592 638.236 146.47V134.396H668.621V217H638.538ZM599.902 175.748C599.902 179.505 600.774 182.892 602.518 185.91C604.262 188.862 606.576 191.176 609.46 192.853C612.411 194.53 615.665 195.368 619.22 195.368C622.909 195.368 626.162 194.53 628.979 192.853C631.796 191.176 634.01 188.862 635.62 185.91C637.297 182.892 638.135 179.505 638.135 175.748C638.135 171.992 637.297 168.638 635.62 165.687C634.01 162.669 631.796 160.321 628.979 158.644C626.162 156.9 622.909 156.028 619.22 156.028C615.665 156.028 612.411 156.9 609.46 158.644C606.576 160.321 604.262 162.669 602.518 165.687C600.774 168.638 599.902 171.992 599.902 175.748ZM673.944 217V134.396H704.531V217H673.944ZM689.64 117.392C684.811 117.392 680.719 115.715 677.365 112.362C674.011 108.941 672.334 104.883 672.334 100.187C672.334 95.492 674.011 91.4339 677.365 88.013C680.786 84.5251 684.878 82.7811 689.64 82.7811C692.793 82.7811 695.677 83.586 698.293 85.1958C700.909 86.7386 703.022 88.8179 704.631 91.4339C706.241 94.0498 707.046 96.9676 707.046 100.187C707.046 104.883 705.336 108.941 701.915 112.362C698.494 115.715 694.402 117.392 689.64 117.392Z" fill="black"/>
<path d="M525.389 218.86C521.566 218.86 518.259 217.491 515.469 214.752C512.731 211.962 511.362 208.656 511.362 204.832C511.362 200.906 512.731 197.573 515.469 194.835C518.259 192.045 521.566 190.65 525.389 190.65C529.316 190.65 532.648 192.045 535.387 194.835C538.125 197.573 539.494 200.906 539.494 204.832C539.494 208.656 538.125 211.962 535.387 214.752C532.648 217.491 529.316 218.86 525.389 218.86Z" fill="black" fill-opacity="0.29"/>
<circle cx="533" cy="156" r="14" fill="black" fill-opacity="0.475"/>
<circle cx="569" cy="111" r="14" fill="black" fill-opacity="0.65"/>
<circle cx="629" cy="94" r="14" fill="black" fill-opacity="0.825"/>
<path d="M668 79H713V122H668V79Z" fill="#F1EFE8"/>
<circle cx="689" cy="105" r="14" fill="black"/>
</svg>
